<?xml version="1.0" standalone="no"?>
<!DOCTYPE svg PUBLIC "-//W3C//DTD SVG 20010904//EN"
 "http://www.w3.org/TR/2001/REC-SVG-20010904/DTD/svg10.dtd">
<svg version="1.0" xmlns="http://www.w3.org/2000/svg"
 width="957.000000pt" height="830.000000pt" viewBox="0 0 957.000000 830.000000"
 preserveAspectRatio="xMidYMid meet">
<metadata>
Created by potrace 1.15, written by Peter Selinger 2001-2017
</metadata>
<g transform="translate(0.000000,830.000000) scale(0.100000,-0.100000)"
fill="#000000" stroke="none">
<path d="M4685 8103 c-60 -104 -148 -255 -195 -338 -48 -82 -113 -195 -145
-250 -32 -55 -90 -156 -130 -225 -94 -163 -665 -1150 -810 -1400 -118 -204
-194 -335 -624 -1078 -144 -249 -259 -457 -256 -462 3 -5 30 -23 61 -41 47
-27 58 -29 69 -18 7 8 230 390 496 849 265 459 516 894 557 965 42 72 115 198
162 280 48 83 246 425 440 760 194 336 382 661 418 723 52 91 67 111 77 100 7
-7 126 -211 265 -453 392 -681 902 -1565 1068 -1850 38 -66 131 -228 207 -360
76 -132 159 -276 185 -320 26 -44 127 -219 225 -390 98 -170 180 -312 182
-314 5 -6 111 50 124 66 8 8 -10 46 -59 130 -38 65 -131 226 -207 358 -76 132
-159 276 -185 320 -26 44 -127 220 -225 390 -98 171 -234 407 -303 525 -321
556 -801 1387 -1047 1815 -120 209 -223 386 -230 393 -8 9 -36 -31 -120 -175z"/>
<path d="M4690 7378 c-57 -101 -140 -248 -185 -328 -46 -80 -93 -163 -105
-185 -12 -22 -39 -69 -60 -105 -20 -36 -50 -90 -67 -120 -16 -30 -63 -113
-105 -185 -73 -127 -86 -151 -173 -305 -23 -41 -104 -185 -180 -320 -243 -430
-307 -544 -333 -590 -13 -25 -28 -49 -32 -55 -4 -5 -21 -35 -37 -65 -16 -30
-66 -118 -110 -195 -117 -205 -295 -521 -333 -590 -18 -33 -37 -66 -43 -73
-11 -14 -11 -14 18 -30 17 -9 25 -1 72 80 29 50 53 92 53 93 0 2 52 95 116
207 64 112 146 257 184 323 37 66 116 206 175 310 60 105 119 210 133 235 37
66 233 413 325 575 44 77 91 160 105 185 14 25 63 113 110 195 73 130 153 271
237 420 13 22 33 58 45 80 12 22 59 103 103 180 44 77 90 158 102 180 12 22
36 66 55 98 37 67 39 66 87 -23 16 -30 78 -140 137 -245 59 -104 141 -248 181
-320 40 -71 82 -146 93 -165 11 -19 50 -87 85 -150 60 -108 249 -442 294 -520
11 -19 35 -62 53 -95 18 -33 36 -64 40 -70 4 -5 21 -35 37 -65 16 -30 60 -109
98 -175 37 -66 79 -140 93 -165 14 -25 71 -126 127 -225 94 -166 212 -376 273
-485 14 -25 36 -62 49 -82 12 -21 23 -40 23 -44 0 -4 15 -32 34 -63 46 -75 90
-154 126 -223 35 -67 41 -72 66 -53 15 11 17 18 8 32 -6 10 -26 45 -44 78 -18
33 -36 65 -40 70 -4 6 -21 35 -37 65 -16 30 -60 109 -98 175 -98 172 -102 181
-157 280 -28 50 -54 95 -58 100 -4 6 -22 37 -40 70 -50 92 -206 369 -266 473
-30 51 -54 94 -54 96 0 2 -38 70 -85 151 -47 82 -85 150 -85 152 0 1 -18 32
-40 68 -22 36 -40 67 -40 69 0 2 -52 95 -116 207 -64 112 -130 229 -146 259
-17 30 -68 120 -113 200 -45 80 -93 165 -107 190 -14 25 -54 97 -90 160 -36
63 -78 138 -93 165 -57 104 -147 260 -154 268 -4 4 -54 -75 -111 -175z"/>
<path d="M3458 3937 c-118 -34 -192 -126 -217 -271 -18 -102 -15 -591 4 -679
36 -173 135 -258 300 -261 157 -2 260 76 300 229 28 108 30 105 -79 105 l-95
0 -11 -56 c-16 -74 -46 -104 -107 -104 -60 0 -88 22 -110 83 -16 46 -18 89
-18 352 0 322 5 366 50 411 19 19 35 24 75 24 66 0 93 -26 111 -104 l12 -57
91 3 91 3 -3 55 c-3 61 -35 138 -76 187 -61 73 -211 110 -318 80z"/>
<path d="M6087 3940 c-98 -25 -170 -90 -206 -185 -28 -74 -40 -206 -40 -420 0
-388 39 -509 187 -582 48 -24 69 -28 137 -28 124 1 217 53 267 149 16 31 47
147 48 179 0 4 -43 7 -95 7 -103 0 -99 3 -110 -64 -10 -59 -52 -96 -110 -96
-38 0 -52 5 -75 28 -45 46 -54 112 -54 407 0 295 9 361 54 407 23 22 38 28 72
28 70 0 107 -36 117 -115 l6 -40 89 -3 c49 -2 93 1 97 5 12 13 -10 122 -36
173 -30 60 -101 123 -157 139 -57 18 -144 22 -191 11z"/>
<path d="M1270 3335 l0 -605 255 0 255 0 0 85 0 85 -160 0 -160 0 0 180 0 180
135 0 135 0 0 85 0 85 -135 0 -135 0 0 170 0 170 160 0 160 0 0 85 0 85 -255
0 -255 0 0 -605z"/>
<path d="M1940 3335 l0 -605 255 0 255 0 0 85 0 84 -157 3 -158 3 -3 518 -2
517 -95 0 -95 0 0 -605z"/>
<path d="M2590 3335 l0 -605 255 0 255 0 0 85 0 85 -155 0 -155 0 0 180 0 180
135 0 135 0 0 85 0 85 -135 0 -135 0 0 170 0 170 155 0 155 0 0 85 0 85 -255
0 -255 0 0 -605z"/>
<path d="M3940 3855 l0 -85 100 0 100 0 0 -520 0 -520 95 0 95 0 2 518 3 517
103 3 102 3 0 84 0 85 -300 0 -300 0 0 -85z"/>
<path d="M4680 3335 l0 -605 95 0 95 0 0 250 0 250 49 0 c44 0 50 -3 59 -27 8
-22 95 -295 141 -443 7 -24 11 -25 111 -28 92 -2 102 -1 96 14 -4 9 -44 129
-91 266 l-84 249 43 40 c24 22 54 63 67 92 21 46 23 68 24 187 0 164 -16 221
-79 285 -63 62 -120 75 -344 75 l-182 0 0 -605z m375 405 c47 -44 59 -215 20
-290 -20 -39 -49 -50 -136 -50 l-69 0 0 186 0 187 80 -5 c66 -4 85 -9 105 -28z"/>
<path d="M5480 3335 l0 -605 100 0 100 0 0 605 0 605 -100 0 -100 0 0 -605z"/>
<path d="M6640 3335 l0 -605 95 0 95 0 0 605 0 605 -95 0 -95 0 0 -605z"/>
<path d="M6965 3858 l0 -83 100 -5 100 -5 3 -517 2 -518 95 0 95 0 0 520 0
520 100 0 100 0 0 85 0 85 -297 0 -298 0 0 -82z"/>
<path d="M7670 3883 c10 -32 51 -159 90 -283 39 -124 85 -265 101 -314 29 -88
29 -92 29 -323 l0 -233 95 0 95 0 0 240 0 239 49 153 c125 388 181 565 181
571 0 4 -47 7 -103 7 l-104 0 -20 -77 c-11 -43 -38 -147 -58 -231 -21 -84 -41
-149 -45 -145 -3 4 -30 108 -60 231 l-55 222 -107 0 -107 0 19 -57z"/>
<path d="M8090 2454 c-30 -19 -59 -35 -64 -37 -12 -4 23 -67 319 -577 40 -69
182 -314 315 -545 269 -466 262 -454 335 -580 303 -524 316 -547 312 -551 -2
-2 -2036 -3 -4520 -2 l-4516 3 33 55 c31 51 355 613 398 689 18 31 178 308
343 591 40 69 126 217 191 330 64 113 164 285 221 383 57 98 105 183 106 189
2 11 -100 78 -119 78 -7 0 -110 -170 -230 -377 -119 -208 -247 -430 -284 -493
-37 -63 -127 -218 -200 -345 -198 -343 -267 -460 -324 -560 -239 -410 -397
-687 -394 -690 1 -2 2153 -5 4781 -6 3666 -3 4777 -1 4777 8 0 6 -15 38 -34
70 -19 32 -142 245 -274 473 -269 468 -343 595 -637 1105 -114 198 -250 432
-300 520 -146 252 -177 305 -178 304 -1 0 -27 -16 -57 -35z"/>
<path d="M3916 2458 c-7 -23 -146 -733 -146 -746 0 -7 13 -12 29 -12 27 0 30
4 39 48 5 26 32 158 58 294 27 136 50 246 51 244 1 -1 12 -69 23 -152 30 -226
28 -214 54 -214 21 0 37 25 121 180 53 99 97 180 99 180 2 0 -98 -514 -109
-557 -5 -20 -2 -23 27 -23 l33 0 73 368 c40 202 72 375 72 385 0 20 -42 24
-58 4 -6 -7 -28 -44 -49 -83 -141 -260 -187 -343 -189 -341 -1 1 -14 85 -28
187 -39 274 -32 250 -67 250 -16 0 -31 -6 -33 -12z"/>
<path d="M4485 2448 c-14 -61 -145 -724 -145 -735 0 -10 29 -13 124 -13 126 0
136 3 136 41 0 5 -43 9 -95 9 -52 0 -95 2 -95 4 0 5 48 253 55 284 5 21 10 22
89 22 81 0 84 1 88 25 l5 25 -84 0 -85 0 7 27 c6 27 55 263 55 269 0 2 44 5
98 6 l97 3 3 28 3 27 -125 0 c-122 0 -126 -1 -131 -22z"/>
<path d="M4810 2451 c-18 -36 -12 -41 50 -41 33 0 60 -2 60 -4 0 -4 -128 -648
-136 -684 -4 -21 -2 -23 28 -20 l32 3 70 353 70 352 63 0 63 0 0 30 0 30 -145
0 c-132 0 -145 -2 -155 -19z"/>
<path d="M5200 2468 c0 -2 -34 -171 -75 -377 -41 -206 -75 -378 -75 -383 0 -5
57 -7 128 -6 123 3 127 4 130 26 3 21 1 22 -93 22 -87 0 -96 2 -91 18 2 9 12
58 21 107 9 50 21 111 27 138 l10 47 83 0 c80 0 83 1 87 25 5 24 4 24 -77 27
l-82 3 28 140 c16 77 29 143 29 147 0 4 44 9 98 10 l97 3 3 28 3 27 -125 0
c-69 0 -126 -1 -126 -2z"/>
<path d="M5570 2468 c0 -2 -34 -172 -75 -378 -41 -206 -75 -378 -75 -382 0 -5
13 -8 29 -8 33 0 31 -7 79 240 l19 95 46 3 46 3 5 -43 c3 -24 10 -86 16 -138
18 -164 17 -160 50 -160 17 0 30 5 30 13 0 6 -9 84 -20 172 -19 151 -20 161
-3 170 63 37 107 124 119 238 14 134 -20 169 -168 175 -54 2 -98 2 -98 0z
m182 -75 c41 -37 13 -215 -42 -268 -23 -22 -37 -26 -85 -26 -31 0 -59 1 -61 3
-2 2 10 69 26 148 16 80 30 148 30 153 0 15 113 7 132 -10z"/>
<path d="M1812 2286 c-5 -6 -65 -108 -132 -226 -140 -246 -116 -204 -313 -550
-82 -146 -153 -269 -157 -275 -4 -5 -22 -37 -40 -70 -18 -32 -129 -228 -246
-433 -118 -206 -214 -375 -214 -376 0 0 1839 -3 4086 -5 l4085 -4 -29 50 c-17
28 -45 77 -63 109 -18 33 -82 147 -144 254 -61 107 -126 222 -145 255 -44 80
-54 96 -147 260 -44 77 -89 156 -100 175 -75 133 -285 502 -333 585 -32 55
-76 133 -99 173 -23 39 -44 72 -47 72 -2 0 -13 -5 -23 -12 -17 -11 -17 -14 14
-67 38 -65 186 -325 223 -391 14 -25 72 -128 130 -230 58 -102 113 -198 122
-215 9 -16 44 -77 77 -135 33 -58 71 -125 85 -150 14 -25 80 -142 148 -260 68
-118 137 -240 153 -270 16 -30 40 -72 53 -92 13 -21 24 -42 24 -48 0 -7 -1264
-10 -3985 -10 -3281 0 -3985 3 -3985 14 0 7 39 80 86 162 47 82 97 169 111
194 14 25 55 97 91 160 36 63 74 131 85 150 11 19 56 98 100 175 44 77 90 158
102 180 13 22 54 94 92 160 38 66 72 127 76 135 4 8 13 24 20 35 7 11 36 63
66 115 30 52 92 161 138 241 45 81 83 151 83 157 0 15 -38 22 -48 8z"/>
</g>
</svg>
